<?xml version="1.0" encoding="iso-8859-1"?>
<!-- Generator: Adobe Illustrator 19.0.0, SVG Export Plug-In . SVG Version: 6.00 Build 0)  -->
<svg version="1.1" id="Capa_1" xmlns="http://www.w3.org/2000/svg" xmlns:xlink="http://www.w3.org/1999/xlink" x="0px" y="0px"
	 viewBox="0 0 512.002 512.002" style="enable-background:new 0 0 512.002 512.002;" xml:space="preserve">
<g>
	<path style="fill:#FF8D8D;" d="M256.002,265.875v-63V120.16c0-24.389-20.369-44.16-45.496-44.16
		c-26.748,0-47.615,22.234-45.318,48.018c-36.262,0.838-60.98,35.484-49.977,68.441c-22.957,8.76-39.209,30.469-39.209,55.861
		c0,23.643,14.088,44.086,34.559,53.865c-35.826,38.281,2.172,99.963,54.652,85.506C162.727,413.568,183.635,436,210.506,436
		c25.127,0,45.496-19.771,45.496-44.16v-71.527L256.002,265.875L256.002,265.875z"/>
	<path style="fill:#FD4A4A;" d="M301.496,76c-25.127,0-45.494,19.771-45.494,44.16v145.715v54.438v71.527
		c0,24.389,20.367,44.16,45.494,44.16c26.871,0,47.779-22.432,45.293-48.309c52.48,14.457,90.478-47.225,54.652-85.506
		c8.895-4.25,16.584-10.514,22.438-18.178c-11.055,8.699-25,13.889-40.156,13.889c-35.893,0-65-29.107-65-65s29.107-65,65-65
		c5.256,0,10.363,0.629,15.26,1.807c-3.275-24.451-24.314-45.041-52.168-45.686C349.111,98.234,328.244,76,301.496,76z"/>
	<path style="fill:#00D8CE;" d="M383.723,297.896c35.801,0,65-29.199,65-65s-29.199-65-65-65s-65,29.199-65,65
		S347.922,297.896,383.723,297.896z"/>
</g>
<path d="M153.559,276.036c-0.175,0.035-0.343,0.071-0.518,0.113c-5.37,1.289-8.679,6.687-7.39,12.058
	c1.101,4.586,5.197,7.669,9.716,7.668c0.724,0,1.459-0.079,2.194-0.244c5.37-1.119,8.842-6.361,7.764-11.75
	C164.243,278.465,158.968,274.952,153.559,276.036z"/>
<path d="M256.002,40c5.522,0,10-4.478,10-10V10c0-5.522-4.478-10-10-10s-10,4.478-10,10v20C246.002,35.522,250.479,40,256.002,40z"
	/>
<path d="M134.34,65.277c1.853,3.208,5.213,5.002,8.67,5.002c1.696,0,3.416-0.433,4.99-1.342c4.783-2.762,6.422-8.877,3.66-13.66
	l-10-17.32c-2.762-4.781-8.878-6.422-13.66-3.66c-4.783,2.762-6.422,8.877-3.66,13.66L134.34,65.277z"/>
<path d="M37.957,141.66l17.322,10c1.575,0.909,3.294,1.342,4.99,1.342c3.456,0,6.818-1.794,8.67-5.002
	c2.762-4.783,1.123-10.899-3.66-13.66l-17.322-10c-4.785-2.762-10.899-1.122-13.66,3.66
	C31.535,132.783,33.174,138.899,37.957,141.66z"/>
<path d="M40,256c0-5.522-4.478-10-10-10H10c-5.522,0-10,4.478-10,10s4.478,10,10,10h20C35.522,266,40,261.522,40,256z"/>
<path d="M55.279,360.342l-17.322,10c-4.783,2.761-6.422,8.877-3.66,13.66c1.852,3.208,5.213,5.002,8.67,5.002
	c1.696,0,3.415-0.433,4.99-1.342l17.322-10c4.783-2.761,6.422-8.877,3.66-13.66C66.18,359.221,60.064,357.581,55.279,360.342z"/>
<path d="M148,443.063c-4.784-2.761-10.9-1.123-13.66,3.66l-10,17.32c-2.762,4.783-1.123,10.898,3.66,13.66
	c1.575,0.909,3.294,1.342,4.99,1.342c3.456,0,6.818-1.794,8.67-5.002l10-17.32C154.422,451.939,152.783,445.824,148,443.063z"/>
<path d="M256.002,472.002c-5.522,0-10,4.478-10,10v20c0,5.522,4.477,10,10,10c5.523,0,10-4.477,10-10v-20
	C266.002,476.479,261.524,472.002,256.002,472.002z"/>
<path d="M377.662,446.723c-2.762-4.782-8.877-6.421-13.66-3.66c-4.783,2.762-6.422,8.877-3.66,13.66l10,17.32
	c1.853,3.208,5.213,5.002,8.67,5.002c1.696,0,3.416-0.433,4.99-1.342c4.783-2.762,6.422-8.877,3.66-13.66L377.662,446.723z"/>
<path d="M474.045,370.342l-17.32-10c-4.784-2.761-10.899-1.122-13.66,3.66c-2.762,4.783-1.123,10.898,3.66,13.66l17.32,10
	c1.575,0.909,3.294,1.342,4.99,1.342c3.456,0,6.818-1.794,8.67-5.002C480.467,379.219,478.828,373.104,474.045,370.342z"/>
<path d="M502.002,246h-20c-5.522,0-10,4.478-10,10s4.478,10,10,10h20c5.522,0,10-4.478,10-10S507.524,246,502.002,246z"/>
<path d="M451.734,153.002c1.696,0,3.416-0.433,4.99-1.342l17.32-10c4.783-2.762,6.422-8.877,3.66-13.66
	c-2.761-4.782-8.877-6.421-13.66-3.66l-17.32,10c-4.783,2.762-6.422,8.877-3.66,13.66
	C444.917,151.208,448.277,153.002,451.734,153.002z"/>
<path d="M364.002,68.938c1.575,0.909,3.294,1.342,4.99,1.342c3.456,0,6.818-1.794,8.67-5.002l10-17.32
	c2.762-4.783,1.123-10.899-3.66-13.66c-4.784-2.762-10.9-1.123-13.66,3.66l-10,17.32C357.58,60.061,359.219,66.176,364.002,68.938z"
	/>
<path d="M458.723,232.896c0-32.991-21.421-61.054-51.076-71.064c-5.975-24.21-26.132-42.548-50.897-46.861
	c-1.092-11.419-5.86-22.137-13.876-30.898C332.365,72.587,317.284,66,301.496,66c-18.811,0-35.454,9.189-45.495,23.202
	C245.96,75.189,229.316,66,210.506,66c-15.788,0-30.869,6.587-41.377,18.072c-8.01,8.755-12.777,19.466-13.874,30.876
	c-16.776,2.854-31.524,12.061-41.403,26.113c-9.566,13.608-13.174,29.875-10.368,45.744c-23.03,12.142-37.481,35.442-37.481,61.515
	c0,22.884,11.137,43.723,29.715,56.746c-10.689,16.856-12.299,37.146-4.016,56.243c10.153,23.409,32.925,38.535,58.012,38.535
	c1.952,0,3.917-0.09,5.887-0.269c1.553,10.393,6.173,20.256,13.399,28.21C179.516,439.361,194.644,446,210.506,446
	c18.811,0,35.454-9.189,45.495-23.202C266.042,436.811,282.686,446,301.496,446c15.862,0,30.99-6.639,41.507-18.214
	c7.228-7.955,11.849-17.819,13.399-28.213c24.265,2.183,46.919-9.041,59.911-30.537c13.217-21.865,12.068-47.572-2.445-67.486
	C440.251,289.919,458.723,263.531,458.723,232.896z M210.506,426c-10.237,0-19.97-4.251-26.704-11.663
	c-5.023-5.529-7.985-12.263-8.642-19.411c18.032-7.16,22.689-19.381,26.186-28.583c2.936-7.729,4.41-11.608,12.779-13.852
	c5.335-1.43,8.501-6.913,7.071-12.247c-1.43-5.335-6.914-8.501-12.247-7.071c-18.255,4.892-22.904,17.131-26.3,26.067
	c-3.421,9.002-5.68,14.948-20.024,18.792c-0.014,0.004-0.025,0.009-0.039,0.013c-0.01,0.003-0.02,0.003-0.029,0.006
	c-4.32,1.19-8.643,1.794-12.844,1.794c-17.113,0-32.683-10.399-39.663-26.494c-6.679-15.397-3.758-31.969,7.813-44.332
	c2.178-2.327,3.116-5.554,2.525-8.686c-0.591-3.133-2.641-5.796-5.517-7.17c-17.807-8.507-28.869-25.689-28.869-44.842
	c0-20.662,12.864-38.922,32.773-46.519c5.007-1.91,7.618-7.427,5.921-12.51c-4.154-12.443-2.144-25.83,5.518-36.729
	c8.036-11.433,20.831-18.186,35.114-18.544c17.016,0.037,20.771,6.827,25.958,16.215c4.726,8.553,11.197,20.266,28.599,20.266
	c5.522,0,10-4.478,10-10s-4.478-10-10-10c-5.153,0-6.502-1.629-11.093-9.938c-5.083-9.201-12.436-22.491-33.339-25.782
	c1.035-6.333,3.906-12.261,8.433-17.208C190.613,90.218,200.316,86,210.506,86C230.077,86,246,101.324,246,120.16v135.259
	c-23.479-2.284-29.346-13.019-36.536-26.216c-7.037-12.916-15.795-28.99-42.115-31.772c-5.508-0.593-10.416,3.401-10.996,8.893
	c-0.581,5.492,3.4,10.416,8.893,10.996c15.883,1.68,20.169,9.546,26.656,21.452c2.348,4.31,4.853,8.893,8.04,13.316
	c-5.27,5.354-13.218,10.9-22.236,15.37c-4.948,2.453-6.971,8.453-4.518,13.401c1.746,3.522,5.287,5.561,8.968,5.561
	c1.491,0,3.007-0.335,4.434-1.042c11.205-5.555,20.837-12.35,27.754-19.435c7.566,4.829,17.65,8.385,31.658,9.527v116.37
	C246,410.676,230.077,426,210.506,426z M394.14,309.019c15.716,16.792,12.917,36.67,5.058,49.673
	c-7.903,13.075-25.675,25.986-49.752,19.359c-0.011-0.003-0.02-0.004-0.031-0.007c-0.013-0.003-0.024-0.009-0.037-0.012
	c-14.345-3.844-16.603-9.79-20.024-18.792c-3.395-8.937-8.045-21.176-26.3-26.067c-5.331-1.429-10.817,1.737-12.247,7.071
	c-1.43,5.334,1.736,10.817,7.071,12.247c8.369,2.243,9.843,6.122,12.779,13.852c3.497,9.202,8.153,21.423,26.186,28.583
	c-0.656,7.148-3.618,13.882-8.642,19.411C321.466,421.749,311.733,426,301.496,426c-19.571,0-35.494-15.324-35.494-34.16v-71.527
	c0-18.021,9.48-26.982,18.353-29.36c11.006-2.946,22.532,2.785,29.36,14.61c2.761,4.783,8.876,6.424,13.66,3.66
	c4.783-2.761,6.422-8.877,3.66-13.66c-11.311-19.592-32.152-29.209-51.856-23.929c-4.831,1.294-9.247,3.384-13.177,6.135V120.16
	c0-18.836,15.923-34.16,35.494-34.16c10.189,0,19.893,4.218,26.62,11.572c4.526,4.947,7.397,10.875,8.433,17.208
	c-20.901,3.29-28.254,16.58-33.338,25.781c-4.592,8.309-5.94,9.938-11.094,9.938c-5.522,0-10,4.478-10,10s4.478,10,10,10
	c17.401,0,23.873-11.713,28.599-20.266c5.188-9.39,8.944-16.18,25.97-16.215c16.699,0.424,31.303,9.941,38.326,23.91
	c-0.431-0.008-0.857-0.033-1.289-0.033c-41.355,0-75,33.645-75,75s33.645,75,75,75c3.096,0,6.142-0.211,9.14-0.577
	C393.221,307.918,393.644,308.488,394.14,309.019z M383.723,287.896c-30.327,0-55-24.673-55-55s24.673-55,55-55s55,24.673,55,55
	C438.723,263.224,414.05,287.896,383.723,287.896z"/>
<path d="M413.565,207.179c-4.22-3.564-10.53-3.03-14.092,1.191l-22.044,26.116l-9.488-7.281c-4.381-3.361-10.66-2.538-14.022,1.846
	c-3.362,4.382-2.536,10.659,1.846,14.021l17.06,13.092c1.812,1.391,3.954,2.066,6.082,2.066c2.85,0,5.675-1.213,7.647-3.55
	l28.201-33.41C418.319,217.05,417.786,210.741,413.565,207.179z"/>
<g>
</g>
<g>
</g>
<g>
</g>
<g>
</g>
<g>
</g>
<g>
</g>
<g>
</g>
<g>
</g>
<g>
</g>
<g>
</g>
<g>
</g>
<g>
</g>
<g>
</g>
<g>
</g>
<g>
</g>
</svg>
